<?xml version="1.0" encoding="UTF-8" standalone="no"?>
<!-- Created with Inkscape (http://www.inkscape.org/) -->

<svg
   xmlns:dc="http://purl.org/dc/elements/1.1/"
   xmlns:cc="http://creativecommons.org/ns#"
   xmlns:rdf="http://www.w3.org/1999/02/22-rdf-syntax-ns#"
   xmlns:svg="http://www.w3.org/2000/svg"
   xmlns="http://www.w3.org/2000/svg"
   xmlns:sodipodi="http://sodipodi.sourceforge.net/DTD/sodipodi-0.dtd"
   xmlns:inkscape="http://www.inkscape.org/namespaces/inkscape"
   width="48"
   height="48"
   viewBox="0 0 48 48.000001"
   id="svg3335"
   version="1.1"
   inkscape:version="0.91 r13725"
   sodipodi:docname="context-icon.svg">
  <defs
     id="defs3337" />
  <sodipodi:namedview
     id="base"
     pagecolor="#ffffff"
     bordercolor="#666666"
     borderopacity="1.0"
     inkscape:pageopacity="0.0"
     inkscape:pageshadow="2"
     inkscape:zoom="11.2"
     inkscape:cx="41.131303"
     inkscape:cy="20.010896"
     inkscape:document-units="px"
     inkscape:current-layer="layer1-3"
     showgrid="false"
     units="px"
     inkscape:window-width="1920"
     inkscape:window-height="997"
     inkscape:window-x="1920"
     inkscape:window-y="0"
     inkscape:window-maximized="1" />
  <metadata
     id="metadata3340">
    <rdf:RDF>
      <cc:Work
         rdf:about="">
        <dc:format>image/svg+xml</dc:format>
        <dc:type
           rdf:resource="http://purl.org/dc/dcmitype/StillImage" />
        <dc:title></dc:title>
      </cc:Work>
    </rdf:RDF>
  </metadata>
  <g
     inkscape:label="Layer 1"
     inkscape:groupmode="layer"
     id="layer1"
     transform="translate(0,-1004.3622)">
    <g
       transform="translate(7.9970042,1.3672176)"
       id="layer1-6"
       inkscape:label="Layer 1">
      <g
         style="color:#000000;clip-rule:nonzero;display:inline;overflow:visible;visibility:visible;opacity:1;isolation:auto;mix-blend-mode:normal;color-interpolation:sRGB;color-interpolation-filters:linearRGB;solid-color:#000000;solid-opacity:1;fill:#818181;fill-opacity:1;fill-rule:evenodd;stroke:none;stroke-width:2123.51733398;stroke-linecap:butt;stroke-linejoin:miter;stroke-miterlimit:4;stroke-dasharray:none;stroke-dashoffset:0;stroke-opacity:1;color-rendering:auto;image-rendering:auto;shape-rendering:auto;text-rendering:auto;enable-background:accumulate"
         transform="matrix(0.00195684,0,0,-0.00195684,-4.0236276,1052.9296)"
         id="g4304">
        <path
           style="color:#000000;clip-rule:nonzero;display:inline;overflow:visible;visibility:visible;isolation:auto;mix-blend-mode:normal;color-interpolation:sRGB;color-interpolation-filters:linearRGB;solid-color:#000000;solid-opacity:1;fill:#818181;fill-opacity:1;fill-rule:evenodd;stroke:none;stroke-width:2123.51733398;stroke-linecap:butt;stroke-linejoin:miter;stroke-miterlimit:4;stroke-dasharray:none;stroke-dashoffset:0;stroke-opacity:1;color-rendering:auto;image-rendering:auto;shape-rendering:auto;text-rendering:auto;enable-background:accumulate"
           inkscape:connector-curvature="0"
           d="M 7350,5779 C 7005,5741 6628,5641 6277,5493 5852,5315 5445,5079 4745,4605 4569,4485 4333,4327 4220,4252 3519,3788 3025,3563 2585,3505 c -229,-30 -338,-16 -485,61 -184,96 -315,265 -365,468 -36,149 -36,376 0,517 55,214 201,398 394,498 115,59 199,82 327,88 227,11 411,-63 573,-231 52,-54 69,-66 95,-66 49,0 80,38 73,88 -12,91 -112,256 -231,380 -133,139 -285,226 -476,275 -114,29 -372,31 -500,4 C 1503,5485 1133,5236 860,4827 456,4222 413,3459 746,2791 c 255,-513 616,-857 1206,-1151 581,-289 1285,-480 2068,-559 1196,-122 2432,45 3580,484 741,284 1505,723 2124,1222 l 78,63 37,-30 c 179,-149 580,-435 816,-582 1688,-1051 3732,-1434 5625,-1053 1041,210 1862,621 2283,1145 337,419 517,901 517,1387 0,524 -202,1023 -560,1383 -227,229 -445,360 -741,445 -464,134 -846,58 -1130,-224 -114,-114 -248,-333 -249,-409 0,-33 43,-72 79,-72 25,0 46,15 109,78 140,141 293,210 482,220 420,20 764,-275 821,-703 15,-113 6,-282 -21,-395 -63,-264 -262,-468 -521,-535 -197,-51 -612,30 -994,194 -349,150 -675,349 -1540,936 -786,533 -1254,788 -1770,965 -395,134 -717,190 -1111,190 -528,0 -1029,-96 -1436,-275 -218,-96 -433,-239 -611,-405 l -87,-82 -93,88 c -364,349 -848,552 -1530,645 -174,23 -678,35 -827,18 z"
           id="path4306" />
      </g>
      <g
         transform="matrix(1.4101874,0,0,1.4101874,-11.950826,-442.16612)"
         id="layer1-3"
         inkscape:label="Layer 1">
        <circle
           cy="1037.6697"
           cx="8.4214411"
           id="path4490"
           style="color:#000000;clip-rule:nonzero;display:inline;overflow:visible;visibility:visible;opacity:1;isolation:auto;mix-blend-mode:normal;color-interpolation:sRGB;color-interpolation-filters:linearRGB;solid-color:#000000;solid-opacity:1;fill:#7c7c7c;fill-opacity:1;fill-rule:evenodd;stroke:none;stroke-width:2.38400006;stroke-linecap:butt;stroke-linejoin:miter;stroke-miterlimit:4;stroke-dasharray:none;stroke-dashoffset:0;stroke-opacity:1;color-rendering:auto;image-rendering:auto;shape-rendering:auto;text-rendering:auto;enable-background:accumulate"
           r="4.4995899" />
        <path
           inkscape:connector-curvature="0"
           id="circle4227"
           d="m 15.116624,1030.9427 -1.759409,1.7574 c 1.275026,1.2656 2.062905,3.02 2.062905,4.9686 0,1.2042 -0.302057,2.3348 -0.832542,3.322 l 2.187979,1.1934 c 0.730618,-1.3446 1.146286,-2.8829 1.146286,-4.5154 0,-2.624 -1.075102,-5.0036 -2.805219,-6.726 z"
           style="color:#000000;font-style:normal;font-variant:normal;font-weight:normal;font-stretch:normal;font-size:medium;line-height:normal;font-family:sans-serif;text-indent:0;text-align:start;text-decoration:none;text-decoration-line:none;text-decoration-style:solid;text-decoration-color:#000000;letter-spacing:normal;word-spacing:normal;text-transform:none;direction:ltr;block-progression:tb;writing-mode:lr-tb;baseline-shift:baseline;text-anchor:start;white-space:normal;clip-rule:nonzero;display:inline;overflow:visible;visibility:visible;opacity:1;isolation:auto;mix-blend-mode:normal;color-interpolation:sRGB;color-interpolation-filters:linearRGB;solid-color:#000000;solid-opacity:1;fill:#7c7c7c;fill-opacity:1;fill-rule:evenodd;stroke:none;stroke-width:2.38400006;stroke-linecap:butt;stroke-linejoin:miter;stroke-miterlimit:4;stroke-dasharray:none;stroke-dashoffset:0;stroke-opacity:1;color-rendering:auto;image-rendering:auto;shape-rendering:auto;text-rendering:auto;enable-background:accumulate" />
        <path
           inkscape:connector-curvature="0"
           id="circle4229"
           d="m 18.165862,1027.8935 -1.759409,1.7595 c 2.053697,2.0457 3.324008,4.8773 3.324008,8.0157 0,1.9526 -0.491849,3.7863 -1.357485,5.3869 l 2.190027,1.1956 c 1.066105,-1.958 1.671238,-4.2016 1.671238,-6.5825 0,-3.8148 -1.557848,-7.2725 -4.068379,-9.7752 z"
           style="color:#000000;font-style:normal;font-variant:normal;font-weight:normal;font-stretch:normal;font-size:medium;line-height:normal;font-family:sans-serif;text-indent:0;text-align:start;text-decoration:none;text-decoration-line:none;text-decoration-style:solid;text-decoration-color:#000000;letter-spacing:normal;word-spacing:normal;text-transform:none;direction:ltr;block-progression:tb;writing-mode:lr-tb;baseline-shift:baseline;text-anchor:start;white-space:normal;clip-rule:nonzero;display:inline;overflow:visible;visibility:visible;opacity:1;isolation:auto;mix-blend-mode:normal;color-interpolation:sRGB;color-interpolation-filters:linearRGB;solid-color:#000000;solid-opacity:1;fill:#7c7c7c;fill-opacity:1;fill-rule:evenodd;stroke:none;stroke-width:2.38400006;stroke-linecap:butt;stroke-linejoin:miter;stroke-miterlimit:4;stroke-dasharray:none;stroke-dashoffset:0;stroke-opacity:1;color-rendering:auto;image-rendering:auto;shape-rendering:auto;text-rendering:auto;enable-background:accumulate" />
        <path
           style="color:#000000;font-style:normal;font-variant:normal;font-weight:normal;font-stretch:normal;font-size:medium;line-height:normal;font-family:sans-serif;text-indent:0;text-align:start;text-decoration:none;text-decoration-line:none;text-decoration-style:solid;text-decoration-color:#000000;letter-spacing:normal;word-spacing:normal;text-transform:none;direction:ltr;block-progression:tb;writing-mode:lr-tb;baseline-shift:baseline;text-anchor:start;white-space:normal;clip-rule:nonzero;display:inline;overflow:visible;visibility:visible;opacity:1;isolation:auto;mix-blend-mode:normal;color-interpolation:sRGB;color-interpolation-filters:linearRGB;solid-color:#000000;solid-opacity:1;fill:#7c7c7c;fill-opacity:1;fill-rule:evenodd;stroke:none;stroke-width:2.38400006;stroke-linecap:butt;stroke-linejoin:miter;stroke-miterlimit:4;stroke-dasharray:none;stroke-dashoffset:0;stroke-opacity:1;color-rendering:auto;image-rendering:auto;shape-rendering:auto;text-rendering:auto;enable-background:accumulate"
           d="m 21.214871,1024.844 -1.756588,1.758 c 2.834101,2.8263 4.584869,6.7369 4.584869,11.066 0,0.3362 -0.01119,0.6711 -0.03199,1.0019 l 2.282983,-3.9959 c -0.636306,-3.8067 -2.459331,-7.2166 -5.079273,-9.83 z"
           id="circle4231"
           inkscape:connector-curvature="0" />
      </g>
      <g
         transform="matrix(1.0499044,0,0,1.0499044,10.329117,-66.537866)"
         id="layer1-8"
         inkscape:label="Layer 1">
        <path
           sodipodi:nodetypes="ccccc"
           inkscape:connector-curvature="0"
           id="rect4263"
           d="m 20.371168,1024.0937 3.999337,2.309 -11.260773,19.5042 -3.9993354,-2.3089 z"
           style="color:#000000;clip-rule:nonzero;display:inline;overflow:visible;visibility:visible;opacity:1;isolation:auto;mix-blend-mode:normal;color-interpolation:sRGB;color-interpolation-filters:linearRGB;solid-color:#000000;solid-opacity:1;fill:#818181;fill-opacity:1;fill-rule:evenodd;stroke:none;stroke-width:2.38439131;stroke-linecap:butt;stroke-linejoin:miter;stroke-miterlimit:4;stroke-dasharray:none;stroke-dashoffset:0;stroke-opacity:1;color-rendering:auto;image-rendering:auto;shape-rendering:auto;text-rendering:auto;enable-background:accumulate" />
        <path
           sodipodi:nodetypes="sssccss"
           inkscape:connector-curvature="0"
           id="rect4279"
           d="m 23.54183,1021.4558 1.527756,0.8822 c 0.684628,0.3952 0.917591,1.2645 0.522316,1.9493 l -0.85549,1.4816 -3.999335,-2.309 0.85549,-1.4818 c 0.395274,-0.6845 1.264637,-0.9175 1.949263,-0.5223 z"
           style="color:#000000;clip-rule:nonzero;display:inline;overflow:visible;visibility:visible;opacity:1;isolation:auto;mix-blend-mode:normal;color-interpolation:sRGB;color-interpolation-filters:linearRGB;solid-color:#000000;solid-opacity:1;fill:#818181;fill-opacity:1;fill-rule:evenodd;stroke:none;stroke-width:2.38439131;stroke-linecap:butt;stroke-linejoin:miter;stroke-miterlimit:4;stroke-dasharray:none;stroke-dashoffset:0;stroke-opacity:1;color-rendering:auto;image-rendering:auto;shape-rendering:auto;text-rendering:auto;enable-background:accumulate" />
        <path
           sodipodi:nodetypes="cccsscccc"
           inkscape:connector-curvature="0"
           id="rect4281"
           d="m 8.8097071,1044.1173 -2.0940308,3.6271 0.1667742,2.2759 c 0,0 -0.086755,0.8417 0.2845719,1.0561 l 0.4801719,0.2773 c 0.3713267,0.2143 1.0570075,-0.2816 1.0570075,-0.2816 l 2.0123212,-1.0179 2.094044,-3.627 z"
           style="color:#000000;clip-rule:nonzero;display:inline;overflow:visible;visibility:visible;opacity:1;isolation:auto;mix-blend-mode:normal;color-interpolation:sRGB;color-interpolation-filters:linearRGB;solid-color:#000000;solid-opacity:1;fill:#818181;fill-opacity:1;fill-rule:evenodd;stroke:none;stroke-width:2.38439131;stroke-linecap:butt;stroke-linejoin:miter;stroke-miterlimit:4;stroke-dasharray:none;stroke-dashoffset:0;stroke-opacity:1;color-rendering:auto;image-rendering:auto;shape-rendering:auto;text-rendering:auto;enable-background:accumulate" />
      </g>
    </g>
  </g>
</svg>
