<?xml version="1.0" encoding="UTF-8" standalone="no"?>
<!-- Created with Inkscape (http://www.inkscape.org/) -->

<svg
   xmlns:dc="http://purl.org/dc/elements/1.1/"
   xmlns:cc="http://creativecommons.org/ns#"
   xmlns:rdf="http://www.w3.org/1999/02/22-rdf-syntax-ns#"
   xmlns:svg="http://www.w3.org/2000/svg"
   xmlns="http://www.w3.org/2000/svg"
   xmlns:sodipodi="http://sodipodi.sourceforge.net/DTD/sodipodi-0.dtd"
   xmlns:inkscape="http://www.inkscape.org/namespaces/inkscape"
   width="32"
   height="32"
   viewBox="0 0 32 32.000001"
   id="svg8566"
   version="1.1"
   inkscape:version="0.91 r13725"
   sodipodi:docname="formal-icon.svg">
  <defs
     id="defs8568" />
  <sodipodi:namedview
     id="base"
     pagecolor="#ffffff"
     bordercolor="#666666"
     borderopacity="1.0"
     inkscape:pageopacity="0.0"
     inkscape:pageshadow="2"
     inkscape:zoom="15.839192"
     inkscape:cx="24.563725"
     inkscape:cy="13.552019"
     inkscape:document-units="px"
     inkscape:current-layer="layer1"
     showgrid="false"
     units="px"
     inkscape:window-width="1920"
     inkscape:window-height="997"
     inkscape:window-x="1920"
     inkscape:window-y="0"
     inkscape:window-maximized="1" />
  <metadata
     id="metadata8571">
    <rdf:RDF>
      <cc:Work
         rdf:about="">
        <dc:format>image/svg+xml</dc:format>
        <dc:type
           rdf:resource="http://purl.org/dc/dcmitype/StillImage" />
        <dc:title></dc:title>
      </cc:Work>
    </rdf:RDF>
  </metadata>
  <g
     inkscape:label="Layer 1"
     inkscape:groupmode="layer"
     id="layer1"
     transform="translate(0,-1020.3622)">
    <rect
       style="color:#000000;clip-rule:nonzero;display:inline;overflow:visible;visibility:visible;opacity:1;isolation:auto;mix-blend-mode:normal;color-interpolation:sRGB;color-interpolation-filters:linearRGB;solid-color:#000000;solid-opacity:1;fill:#818181;fill-opacity:1;fill-rule:evenodd;stroke:none;stroke-width:2.38439131;stroke-linecap:butt;stroke-linejoin:miter;stroke-miterlimit:4;stroke-dasharray:none;stroke-dashoffset:0;stroke-opacity:1;color-rendering:auto;image-rendering:auto;shape-rendering:auto;text-rendering:auto;enable-background:accumulate"
       id="rect4294"
       width="23.303562"
       height="2.4107056"
       x="4.636929"
       y="1034.1484" />
    <rect
       style="color:#000000;clip-rule:nonzero;display:inline;overflow:visible;visibility:visible;opacity:1;isolation:auto;mix-blend-mode:normal;color-interpolation:sRGB;color-interpolation-filters:linearRGB;solid-color:#000000;solid-opacity:1;fill:#818181;fill-opacity:1;fill-rule:evenodd;stroke:none;stroke-width:2.38439131;stroke-linecap:butt;stroke-linejoin:miter;stroke-miterlimit:4;stroke-dasharray:none;stroke-dashoffset:0;stroke-opacity:1;color-rendering:auto;image-rendering:auto;shape-rendering:auto;text-rendering:auto;enable-background:accumulate"
       id="rect4296"
       width="12.946426"
       height="9.9107189"
       x="9.1904869"
       y="1026.0234"
       ry="2.5000131" />
    <g
       id="g4304"
       transform="matrix(0.00112285,0,0,-0.00112285,4.6132236,1047.6711)"
       style="color:#000000;clip-rule:nonzero;display:inline;overflow:visible;visibility:visible;opacity:1;isolation:auto;mix-blend-mode:normal;color-interpolation:sRGB;color-interpolation-filters:linearRGB;solid-color:#000000;solid-opacity:1;fill:#818181;fill-opacity:1;fill-rule:evenodd;stroke:none;stroke-width:2123.51733398;stroke-linecap:butt;stroke-linejoin:miter;stroke-miterlimit:4;stroke-dasharray:none;stroke-dashoffset:0;stroke-opacity:1;color-rendering:auto;image-rendering:auto;shape-rendering:auto;text-rendering:auto;enable-background:accumulate">
      <path
         id="path4306"
         d="M 7350,5779 C 7005,5741 6628,5641 6277,5493 5852,5315 5445,5079 4745,4605 4569,4485 4333,4327 4220,4252 3519,3788 3025,3563 2585,3505 c -229,-30 -338,-16 -485,61 -184,96 -315,265 -365,468 -36,149 -36,376 0,517 55,214 201,398 394,498 115,59 199,82 327,88 227,11 411,-63 573,-231 52,-54 69,-66 95,-66 49,0 80,38 73,88 -12,91 -112,256 -231,380 -133,139 -285,226 -476,275 -114,29 -372,31 -500,4 C 1503,5485 1133,5236 860,4827 456,4222 413,3459 746,2791 c 255,-513 616,-857 1206,-1151 581,-289 1285,-480 2068,-559 1196,-122 2432,45 3580,484 741,284 1505,723 2124,1222 l 78,63 37,-30 c 179,-149 580,-435 816,-582 1688,-1051 3732,-1434 5625,-1053 1041,210 1862,621 2283,1145 337,419 517,901 517,1387 0,524 -202,1023 -560,1383 -227,229 -445,360 -741,445 -464,134 -846,58 -1130,-224 -114,-114 -248,-333 -249,-409 0,-33 43,-72 79,-72 25,0 46,15 109,78 140,141 293,210 482,220 420,20 764,-275 821,-703 15,-113 6,-282 -21,-395 -63,-264 -262,-468 -521,-535 -197,-51 -612,30 -994,194 -349,150 -675,349 -1540,936 -786,533 -1254,788 -1770,965 -395,134 -717,190 -1111,190 -528,0 -1029,-96 -1436,-275 -218,-96 -433,-239 -611,-405 l -87,-82 -93,88 c -364,349 -848,552 -1530,645 -174,23 -678,35 -827,18 z"
         inkscape:connector-curvature="0"
         style="color:#000000;clip-rule:nonzero;display:inline;overflow:visible;visibility:visible;isolation:auto;mix-blend-mode:normal;color-interpolation:sRGB;color-interpolation-filters:linearRGB;solid-color:#000000;solid-opacity:1;fill:#818181;fill-opacity:1;fill-rule:evenodd;stroke:none;stroke-width:2123.51733398;stroke-linecap:butt;stroke-linejoin:miter;stroke-miterlimit:4;stroke-dasharray:none;stroke-dashoffset:0;stroke-opacity:1;color-rendering:auto;image-rendering:auto;shape-rendering:auto;text-rendering:auto;enable-background:accumulate" />
    </g>
  </g>
</svg>
